<!-- icon666.com - MILLIONS vector ICONS FREE --><svg fill="none" viewBox="0 0 24 24" xmlns="http://www.w3.org/2000/svg"><path clip-rule="evenodd" d="m12 3.75c-.6904 0-1.25.55964-1.25 1.25s.5596 1.25 1.25 1.25 1.25-.55964 1.25-1.25-.5596-1.25-1.25-1.25zm-2.64648.5c.32646-1.15425 1.38768-2 2.64648-2s2.32.84575 2.6465 2h5.3535c.4142 0 .75.33579.75.75s-.3358.75-.75.75h-5.3535c-.3265 1.15425-1.3877 2-2.6465 2s-2.32002-.84575-2.64648-2h-5.35352c-.41421 0-.75-.33579-.75-.75s.33579-.75.75-.75zm8.64648 6.5c-.6904 0-1.25.5596-1.25 1.25s.5596 1.25 1.25 1.25 1.25-.5596 1.25-1.25-.5596-1.25-1.25-1.25zm-2.6465.5c.3265-1.1543 1.3877-2 2.6465-2 1.5188 0 2.75 1.2312 2.75 2.75s-1.2312 2.75-2.75 2.75c-1.2588 0-2.32-.8457-2.6465-2h-11.3535c-.41421 0-.75-.3358-.75-.75s.33579-.75.75-.75zm-9.3535 6.5c-.69036 0-1.25.5596-1.25 1.25s.55964 1.25 1.25 1.25 1.25-.5596 1.25-1.25-.55964-1.25-1.25-1.25zm-2.75 1.25c0-1.5188 1.23122-2.75 2.75-2.75 1.25878 0 2.32002.8457 2.64648 2h11.35352c.4142 0 .75.3358.75.75s-.3358.75-.75.75h-11.35352c-.32646 1.1543-1.3877 2-2.64648 2-1.51878 0-2.75-1.2312-2.75-2.75z" fill="rgb(0,0,0)" fill-rule="evenodd"></path></svg>