<!-- icon666.com - MILLIONS vector ICONS FREE --><svg id="Capa_1" enable-background="new 0 0 512 512" viewBox="0 0 512 512" xmlns="http://www.w3.org/2000/svg" xmlns:xlink="http://www.w3.org/1999/xlink"><linearGradient id="SVGID_1_" gradientUnits="userSpaceOnUse" x1="256" x2="256" y1="512" y2="0"><stop offset="0" stop-color="#ffc2cc"></stop><stop offset="1" stop-color="#fff2f4"></stop></linearGradient><linearGradient id="SVGID_2_" gradientUnits="userSpaceOnUse" x1="256" x2="256" y1="398" y2="114"><stop offset="0" stop-color="#ffa68d"></stop><stop offset="1" stop-color="#fd3a84"></stop></linearGradient><g><g><circle cx="256" cy="256" fill="url(#SVGID_1_)" r="256"></circle></g><g><g><path d="m202.706 238.25h-35.529c-4.901 0-8.882 3.978-8.882 8.875v26.625h53.294v-26.625c-.001-4.897-3.982-8.875-8.883-8.875zm177.647-124.25h-248.706c-14.694 0-26.647 11.943-26.647 26.625v177.5c0 14.682 11.953 26.625 26.647 26.625h248.706c14.694 0 26.647-11.943 26.647-26.625v-177.5c0-14.682-11.953-26.625-26.647-26.625zm-124.353 53.25h53.294c4.909 0 8.882 3.969 8.882 8.875s-3.972 8.875-8.882 8.875h-53.294c-4.91 0-8.882-3.969-8.882-8.875s3.972-8.875 8.882-8.875zm-26.647 115.375c0 4.906-3.973 8.875-8.882 8.875h-71.059c-4.909 0-8.882-3.969-8.882-8.875v-35.5c0-14.682 11.953-26.625 26.647-26.625h17.765c-14.694 0-26.647-11.943-26.647-26.625s11.953-26.625 26.647-26.625 26.647 11.943 26.647 26.625-11.954 26.625-26.648 26.625h17.765c14.694 0 26.647 11.943 26.647 26.625zm115.47 8.875h-88.823c-4.91 0-8.882-3.969-8.882-8.875s3.973-8.875 8.882-8.875h88.823c4.91 0 8.882 3.969 8.882 8.875s-3.972 8.875-8.882 8.875zm17.765-35.5h-106.588c-4.91 0-8.882-3.969-8.882-8.875s3.973-8.875 8.882-8.875h106.588c4.909 0 8.882 3.969 8.882 8.875s-3.972 8.875-8.882 8.875zm0-35.5h-106.588c-4.91 0-8.882-3.969-8.882-8.875s3.973-8.875 8.882-8.875h106.588c4.909 0 8.882 3.969 8.882 8.875s-3.972 8.875-8.882 8.875zm-177.647-35.5c-4.901 0-8.882 3.978-8.882 8.875s3.981 8.875 8.882 8.875 8.882-3.978 8.882-8.875-3.981-8.875-8.882-8.875zm142.118 195.25h-29.131l-5.921-17.75h-72.013l-5.921 17.75h-29.131c-4.909 0-8.882 3.969-8.882 8.875s3.973 8.875 8.882 8.875c3.223 0 143.913 0 142.118 0 4.909 0 8.882-3.969 8.882-8.875s-3.974-8.875-8.883-8.875z" fill="url(#SVGID_2_)"></path></g></g></g></svg>