<svg width="32" height="32" viewBox="0 0 32 32" fill="none" xmlns="http://www.w3.org/2000/svg">
<path d="M14.207 3.6344C14.9406 2.14791 17.0603 2.14791 17.7939 3.6344L20.7076 9.5382C20.999 10.1285 21.5621 10.5376 22.2135 10.6323L28.7287 11.579C30.3692 11.8174 31.0242 13.8333 29.8372 14.9904L25.1227 19.5858C24.6513 20.0453 24.4362 20.7073 24.5475 21.3561L25.6604 27.845C25.9407 29.4788 24.2258 30.7247 22.7586 29.9534L16.9312 26.8897C16.3485 26.5834 15.6524 26.5834 15.0698 26.8897L9.2424 29.9534C7.77514 30.7247 6.06028 29.4788 6.3405 27.845L7.45343 21.3561C7.56471 20.7073 7.34961 20.0453 6.87824 19.5858L2.16378 14.9904C0.976745 13.8333 1.63177 11.8174 3.27221 11.579L9.78743 10.6323C10.4389 10.5376 11.002 10.1285 11.2933 9.5382L14.207 3.6344Z" fill="#662500"/>
</svg>
