<!-- icon666.com - MILLIONS vector ICONS FREE --><svg version="1.1" id="Capa_1" xmlns="http://www.w3.org/2000/svg" xmlns:xlink="http://www.w3.org/1999/xlink" x="0px" y="0px" viewBox="0 0 512.005 512.005" style="enable-background:new 0 0 512.005 512.005;" xml:space="preserve"><g><g><g><path d="M255.992,266.245c-39.506,0-71.68,32.154-71.68,71.68v174.08h143.36v-174.08 C327.672,298.399,295.519,266.245,255.992,266.245z" fill="#000000" style="fill: rgb(171, 171, 171);"></path><path d="M509.002,248.755L263.242,2.995c-3.994-3.994-10.486-3.994-14.479,0L3.003,248.755c-3.994,3.994-3.994,10.486,0,14.479 s10.486,3.994,14.479,0l43.95-43.95v282.481c0,5.652,4.588,10.24,10.24,10.24h92.16v-174.08c0-50.831,41.349-92.16,92.16-92.16 c50.831,0,92.16,41.329,92.16,92.16v174.08h92.16c5.673,0,10.24-4.588,10.24-10.24V219.284l43.971,43.95 c2.007,2.007,4.628,3.011,7.229,3.011c2.621,0,5.243-1.004,7.25-3.011C512.996,259.241,512.996,252.749,509.002,248.755z" fill="#000000" style="fill: rgb(171, 171, 171);"></path></g></g></g></svg>